<?xml version="1.0" encoding="utf-8"?>
<!-- Generator: Adobe Illustrator 27.5.0, SVG Export Plug-In . SVG Version: 6.00 Build 0)  -->
<svg version="1.1" id="Capa_1" xmlns="http://www.w3.org/2000/svg" xmlns:xlink="http://www.w3.org/1999/xlink" x="0px" y="0px"
	 viewBox="0 0 2122 2122" style="enable-background:new 0 0 2122 2122;" xml:space="preserve">
<g>
	<path style="fill:#454F56;" d="M1980.555,759.114c0-37.992-27.422-69.516-63.538-76.027v-4.27c0-44.492-36.068-80.56-80.56-80.56
		H1759.5v-15.742v-17.849c0-13.492-10.938-24.43-24.431-24.43h-229.211c-13.492,0-24.43,10.938-24.43,24.43v17.849h-0.001v15.742
		h-89.671l-22.432-86.002c-13.736-52.661-61.297-89.407-115.72-89.407H867.963c-54.423,0-101.984,36.746-115.719,89.407
		l-22.433,86.002h-56.518v-2.261c0-17.376-14.217-31.593-31.593-31.593H510.372c-17.376,0-31.592,14.217-31.592,31.593v2.261H443.71
		v-5.854c0-15.4-12.601-28-28-28h-91.751c-15.4,0-28,12.6-28,28v5.854h-10.85c-44.491,0-80.559,36.068-80.559,80.56v4.232
		c-36.237,6.412-63.785,37.987-63.785,76.065c0,38.077,27.548,69.653,63.785,76.065v782.734c0,44.492,36.068,80.56,80.559,80.56
		h1551.349c44.492,0,80.56-36.068,80.56-80.56V835.141C1953.133,828.63,1980.555,797.105,1980.555,759.114z"/>
	<path style="fill:#555F6B;" d="M1431.27,864.775c-85.277-111.239-219.492-182.985-370.486-182.985
		c-150.995,0-285.21,71.746-370.486,182.985c-60.254,78.598-96.088,176.902-96.088,283.59s35.835,204.991,96.088,283.589
		c85.277,111.238,219.492,182.986,370.486,182.986c150.994,0,285.21-71.747,370.486-182.986
		c60.254-78.598,96.088-176.901,96.088-283.589S1491.524,943.373,1431.27,864.775z"/>
	<path style="fill:#454F56;" d="M1060.783,721.096c-235.979,0.008-427.26,191.289-427.268,427.268
		c0.008,235.978,191.289,427.26,427.268,427.268c235.978-0.008,427.259-191.29,427.268-427.268
		C1488.043,912.386,1296.761,721.104,1060.783,721.096z"/>
	<path style="fill:#555F6B;" d="M1345.945,863.203c-73.017-72.998-173.761-118.112-285.162-118.118
		c-111.402,0.006-212.145,45.12-285.163,118.118c-72.998,73.017-118.112,173.761-118.117,285.162
		c0.005,111.401,45.119,212.145,118.117,285.162c73.018,72.998,173.761,118.112,285.163,118.118
		c111.401-0.006,212.145-45.12,285.162-118.118c72.998-73.017,118.111-173.761,118.117-285.162
		C1464.057,1036.963,1418.943,936.22,1345.945,863.203z"/>
	<path style="fill:#454F56;" d="M1060.783,813.794c-184.78,0.003-334.567,149.791-334.57,334.571
		c0.003,184.78,149.79,334.567,334.57,334.57c184.78-0.003,334.567-149.791,334.57-334.57
		C1395.35,963.584,1245.563,813.797,1060.783,813.794z"/>
	<path style="fill:#272D30;" d="M443.71,592.403c0-15.4-12.601-28-28.001-28h-91.751c-15.4,0-28,12.6-28,28v5.854H443.71V592.403z"
		/>
	<path style="fill:#272D30;" d="M673.293,595.996c0-17.376-14.217-31.593-31.593-31.593H510.371
		c-17.376,0-31.592,14.216-31.592,31.593v2.261h194.513V595.996z"/>
	<polygon style="fill:#272D30;" points="1759.5,582.514 1737.553,582.514 1737.553,540.486 1737.553,540.235 1735.07,540.235 
		1724.475,540.235 1724.475,582.514 1706.047,582.514 1706.047,540.235 1692.97,540.235 1692.97,582.514 1674.542,582.514 
		1674.542,540.235 1661.464,540.235 1661.464,582.514 1643.036,582.514 1643.036,540.235 1629.959,540.235 1629.959,582.514 
		1611.531,582.514 1611.531,540.235 1598.453,540.235 1598.453,582.514 1580.025,582.514 1580.025,540.235 1566.947,540.235 
		1566.947,582.514 1548.52,582.514 1548.52,540.235 1535.442,540.235 1535.442,582.514 1517.014,582.514 1517.014,540.235 
		1505.858,540.235 1503.936,540.235 1503.936,540.429 1503.936,582.514 1481.428,582.514 1481.427,582.514 1481.427,598.257 
		1759.5,598.257 	"/>
	<path style="fill:#14191A;" d="M185.218,759.114c0,10.676,8.655,19.331,19.331,19.331v-38.661
		C193.873,739.783,185.218,748.437,185.218,759.114z"/>
	<path style="fill:#14191A;" d="M1917.018,739.783v38.661c10.676,0,19.331-8.655,19.331-19.331
		C1936.348,748.437,1927.694,739.783,1917.018,739.783z"/>
	<path style="fill:#4D5969;" d="M1259.932,455.571H980.6c-39.421,0-73.87,32.499-83.819,79.073l-13.59,63.613h474.15l-13.59-63.613
		C1333.802,488.07,1299.353,455.571,1259.932,455.571z"/>
	<path style="fill:#4D5969;" d="M1060.783,681.79H422.346c-18.296,0-34.39,9.369-43.791,23.56
		c7.074,7.114,11.45,16.915,11.45,27.741c0,14.763-8.143,27.611-20.171,34.343v97.341h320.462
		C775.573,753.536,909.789,681.79,1060.783,681.79z"/>
	<path style="fill:#4D5969;" d="M1060.783,1614.939c-150.995,0-285.21-71.747-370.486-182.986H369.834v174.536
		c0,29.001,23.51,52.512,52.512,52.512h1399.792c29.002,0,52.511-23.51,52.511-52.512v-174.536h-443.38
		C1345.993,1543.192,1211.777,1614.939,1060.783,1614.939z"/>
	<path style="fill:#4D5969;" d="M1431.27,864.775h443.38V734.302c0-27.729-21.507-50.382-48.742-52.322v66.272
		c0,8.306-2.8,15.914-7.416,22.089c-0.005,0.008-0.012,0.016-0.018,0.024c-0.684,0.914-1.392,1.8-2.156,2.646
		c-0.03,0.033-0.064,0.064-0.094,0.098c-1.185,1.303-2.459,2.51-3.816,3.634c-0.585,0.489-1.177,0.968-1.792,1.421
		c-0.493,0.359-0.987,0.712-1.497,1.048c-1.181,0.784-2.393,1.525-3.663,2.171c-0.089,0.045-0.181,0.085-0.269,0.13
		c-1.579,0.779-3.209,1.468-4.905,2.02c-0.048,0.016-0.094,0.036-0.142,0.052c-1.618,0.519-3.292,0.906-4.998,1.201
		c-0.368,0.064-0.737,0.116-1.109,0.169c-1.713,0.242-3.447,0.411-5.226,0.412c-0.004,0-0.009,0.001-0.013,0.001H1628.25
		c-2.563,0-5.064-0.26-7.481-0.754c-16.913-3.461-29.635-18.426-29.635-36.361V681.79h-77.817h-7.459h-445.075
		C1211.777,681.79,1345.993,753.536,1431.27,864.775z"/>
	<path style="fill:#272D30;" d="M1874.65,864.775h-443.38c60.254,78.598,96.088,176.902,96.088,283.59
		s-35.834,204.991-96.088,283.589h443.38h42.368V864.775H1874.65z"/>
	<path style="fill:#272D30;" d="M690.297,864.775H369.834H204.549v567.179h165.285h320.462
		c-60.254-78.598-96.088-176.901-96.088-283.589S630.043,943.373,690.297,864.775z"/>
	<path style="fill:#555F6B;" d="M1290.257,918.89c-58.743-58.735-139.844-95.049-229.474-95.052
		c-89.632,0.003-170.731,36.316-229.475,95.052c-58.735,58.743-95.049,139.843-95.051,229.474
		c0.003,89.631,36.316,170.731,95.051,229.474c58.744,58.735,139.843,95.049,229.475,95.052
		c89.631-0.003,170.731-36.316,229.474-95.052c58.735-58.743,95.049-139.843,95.052-229.474
		C1385.306,1058.733,1348.993,977.634,1290.257,918.89z"/>
	
		<ellipse transform="matrix(0.7071 -0.7071 0.7071 0.7071 -501.3202 1086.4353)" style="fill:#454F56;" cx="1060.783" cy="1148.365" rx="298.422" ry="298.422"/>
	<circle style="fill:#A1D2D9;" cx="1060.783" cy="1148.365" r="252.822"/>
	<path style="fill:#CAE3ED;" d="M1041.093,1174.414c78.614,56.092,177.79,51.884,221.516-9.4
		c43.727-61.283,15.445-156.434-63.169-212.526c-78.614-56.092-177.79-51.884-221.516,9.399
		C934.197,1023.17,962.479,1118.322,1041.093,1174.414z"/>
	<path style="fill:#272D30;" d="M1788.793,643.812H1628.25c-9.376,0-17.845,3.566-24.35,9.321c-0.047,0.041-0.095,0.082-0.142,0.124
		c-1.296,1.158-2.541,2.371-3.668,3.696c-0.179,0.207-0.364,0.406-0.538,0.616c-0.677,0.821-1.297,1.689-1.901,2.567
		c-0.43,0.624-0.827,1.266-1.217,1.916c-0.419,0.695-0.837,1.391-1.21,2.116c-0.754,1.466-1.436,2.974-1.991,4.547
		c-0.042,0.119-0.089,0.234-0.129,0.353c-0.582,1.726-1.037,3.507-1.362,5.336c-0.051,0.29-0.087,0.583-0.133,0.875
		c-0.282,1.845-0.474,3.721-0.474,5.646v0.863v66.462c0,17.936,12.722,32.9,29.635,36.361c2.417,0.494,4.918,0.754,7.481,0.754
		h160.543c0.005,0,0.01-0.001,0.013-0.001c1.779,0,3.514-0.169,5.226-0.412c0.372-0.053,0.74-0.105,1.109-0.169
		c1.706-0.295,3.38-0.682,4.998-1.201c0.048-0.016,0.094-0.036,0.142-0.052c1.696-0.552,3.327-1.241,4.905-2.02
		c0.089-0.045,0.18-0.085,0.269-0.13c1.271-0.647,2.482-1.388,3.663-2.171c0.508-0.338,1.006-0.687,1.497-1.048
		c0.614-0.453,1.207-0.932,1.792-1.421c1.357-1.124,2.631-2.331,3.816-3.634c0.03-0.033,0.063-0.064,0.094-0.098
		c0.758-0.848,1.477-1.731,2.156-2.646c0.006-0.008,0.012-0.016,0.018-0.024c1.039-1.403,1.977-2.886,2.815-4.431
		c0.736-1.334,1.336-2.741,1.906-4.168c0.068-0.172,0.165-0.329,0.23-0.502c-0.004,0.001-0.008,0.002-0.012,0.003
		c1.549-4.045,2.476-8.393,2.476-12.99V681.98v-1.053C1825.908,660.429,1809.291,643.812,1788.793,643.812z"/>
	<path style="fill:#333B3F;" d="M1614.534,1143.129c0,151.76-57.925,247.586-57.925,247.586h318.041V895.542h-318.041
		C1556.609,895.542,1614.534,991.369,1614.534,1143.129z"/>
	<path style="fill:#333B3F;" d="M576.036,895.542H241.138v495.172h334.898c0,0-60.995-95.826-60.995-247.586
		C515.041,991.369,576.036,895.542,576.036,895.542z"/>
	<path style="fill:#272D30;" d="M378.555,705.35c-7.127-7.167-16.993-11.607-27.899-11.607c-21.731,0-39.348,17.617-39.348,39.349
		c0,21.731,17.617,39.349,39.348,39.349c6.968,0,13.501-1.828,19.178-5.005c12.028-6.732,20.171-19.58,20.171-34.343
		C390.005,722.265,385.629,712.464,378.555,705.35z"/>
	<circle style="fill:#272D30;" cx="364.048" cy="1013.05" r="42.069"/>
	<circle style="fill:#272D30;" cx="364.048" cy="1143.129" r="42.069"/>
	<path style="fill:#161A1B;" d="M350.656,707.352c-14.215,0-25.738,11.524-25.738,25.739c0,14.215,11.524,25.738,25.738,25.738
		c14.216,0,25.739-11.524,25.739-25.738C376.395,718.875,364.872,707.352,350.656,707.352z"/>
	<path style="fill:#161A1B;" d="M363.985,1117.098c-14.215,0-25.739,11.524-25.739,25.739c0,14.215,11.524,25.738,25.739,25.738
		c14.215,0,25.739-11.524,25.739-25.738C389.724,1128.622,378.201,1117.098,363.985,1117.098z"/>
	<circle style="fill:#161A1B;" cx="363.985" cy="1013.05" r="25.739"/>
	<path style="fill:#14191A;" d="M1812.963,762.925h-160.548c-20.498,0-37.113-16.617-37.113-37.115v-67.324
		c0-4.588,0.941-8.93,2.464-12.986c-6.966,2.063-13.066,6.104-17.675,11.454c-0.179,0.207-0.364,0.406-0.538,0.616
		c-0.677,0.821-1.297,1.689-1.901,2.567c-0.43,0.624-0.827,1.266-1.217,1.916c-0.419,0.695-0.837,1.391-1.21,2.116
		c-0.754,1.466-1.436,2.974-1.991,4.547c-0.042,0.119-0.089,0.234-0.129,0.353c-0.582,1.726-1.037,3.507-1.362,5.336
		c-0.051,0.29-0.087,0.583-0.133,0.875c-0.285,1.843-0.472,3.72-0.472,5.646v67.324c0,17.936,12.72,32.9,29.632,36.362
		c2.417,0.494,4.918,0.754,7.481,0.754h160.543c0.005,0,0.01-0.001,0.013-0.001c1.779,0,3.514-0.169,5.226-0.412
		c0.372-0.053,0.74-0.105,1.109-0.169c1.706-0.295,3.38-0.682,4.998-1.201c0.048-0.016,0.094-0.036,0.142-0.052
		c1.696-0.552,3.327-1.241,4.905-2.02c0.089-0.045,0.18-0.085,0.269-0.13c1.271-0.647,2.482-1.388,3.663-2.171
		c0.508-0.338,1.006-0.687,1.497-1.048c0.614-0.453,1.207-0.932,1.792-1.421c1.349-1.129,2.639-2.326,3.816-3.634
		c0.03-0.033,0.063-0.064,0.094-0.098c0.758-0.848,1.477-1.731,2.156-2.646c0.006-0.008,0.012-0.016,0.018-0.024
		c2.047-2.765,3.721-5.824,4.952-9.102C1820.1,762.23,1816.628,762.925,1812.963,762.925z"/>
</g>
</svg>
